<?xml version="1.0" encoding="UTF-8" standalone="no"?>
<!-- Created with Inkscape (http://www.inkscape.org/) -->

<svg
   xmlns:dc="http://purl.org/dc/elements/1.1/"
   xmlns:cc="http://creativecommons.org/ns#"
   xmlns:rdf="http://www.w3.org/1999/02/22-rdf-syntax-ns#"
   xmlns:svg="http://www.w3.org/2000/svg"
   xmlns="http://www.w3.org/2000/svg"
   xmlns:sodipodi="http://sodipodi.sourceforge.net/DTD/sodipodi-0.dtd"
   xmlns:inkscape="http://www.inkscape.org/namespaces/inkscape"
   width="210mm"
   height="297mm"
   viewBox="0 0 210 297"
   version="1.1"
   id="svg8"
   inkscape:version="0.92.1 r15371"
   sodipodi:docname="logo_min.svg">
  <defs
     id="defs2" />
  <sodipodi:namedview
     id="base"
     pagecolor="#ffffff"
     bordercolor="#666666"
     borderopacity="1.0"
     inkscape:pageopacity="0.0"
     inkscape:pageshadow="2"
     inkscape:zoom="0.38353221"
     inkscape:cx="-91.727281"
     inkscape:cy="467.00755"
     inkscape:document-units="mm"
     inkscape:current-layer="layer1"
     showgrid="false"
     inkscape:window-width="1920"
     inkscape:window-height="1028"
     inkscape:window-x="-8"
     inkscape:window-y="-8"
     inkscape:window-maximized="1" />
  <metadata
     id="metadata5">
    <rdf:RDF>
      <cc:Work
         rdf:about="">
        <dc:format>image/svg+xml</dc:format>
        <dc:type
           rdf:resource="http://purl.org/dc/dcmitype/StillImage" />
        <dc:title />
      </cc:Work>
    </rdf:RDF>
  </metadata>
  <g
     inkscape:label="Camada 1"
     inkscape:groupmode="layer"
     id="layer1">
    <g
       id="g5976"
       transform="translate(-41.518093,-74.944824)"
       style="fill:#e9afaf;fill-opacity:1;stroke:none;stroke-opacity:1"
       inkscape:export-xdpi="96"
       inkscape:export-ydpi="96">
      <ellipse
         ry="11.699086"
         rx="11.713417"
         cy="142.65552"
         cx="117.19424"
         id="path4498"
         style="opacity:0.98299997;fill:#e9afaf;fill-opacity:1;stroke:none;stroke-width:0.40067494;stroke-linecap:square;stroke-linejoin:round;stroke-miterlimit:4;stroke-dasharray:none;stroke-opacity:1;paint-order:stroke fill markers" />
      <ellipse
         ry="11.699086"
         rx="11.713417"
         cy="142.65184"
         cx="145.92915"
         id="path4498-9"
         style="opacity:0.98299997;fill:#e9afaf;fill-opacity:1;stroke:none;stroke-width:0.40067494;stroke-linecap:square;stroke-linejoin:round;stroke-miterlimit:4;stroke-dasharray:none;stroke-opacity:1;paint-order:stroke fill markers" />
      <ellipse
         ry="11.699086"
         rx="11.713417"
         cy="142.72087"
         cx="175.02124"
         id="path4498-9-7"
         style="opacity:0.98299997;fill:#e9afaf;fill-opacity:1;stroke:none;stroke-width:0.40067494;stroke-linecap:square;stroke-linejoin:round;stroke-miterlimit:4;stroke-dasharray:none;stroke-opacity:1;paint-order:stroke fill markers" />
      <path
         sodipodi:nodetypes="cccccccccccccc"
         inkscape:connector-curvature="0"
         id="path5964"
         d="m 135.67269,159.35619 20.57975,-0.0501 c 4.44764,-0.0699 7.45028,3.26098 7.51696,6.36434 l 0.13364,25.08518 c -0.0286,1.53295 -1.92498,4.17447 -6.86633,6.45633 l -0.0472,31.48078 c -0.0715,1.38475 -1.01007,2.65196 -2.94472,2.92814 l -14.52314,0.15556 c -1.95766,-0.0556 -3.8265,-0.95729 -3.92553,-3.4745 l -0.0924,-31.12932 c -2.64148,-1.13781 -6.72548,-3.58705 -6.82719,-7.42267 l 0.297,-24.80232 c 0.0204,-3.24764 3.95877,-5.43563 6.69928,-5.59142 z"
         style="fill:#e9afaf;fill-opacity:1;stroke:none;stroke-width:0.26458332px;stroke-linecap:butt;stroke-linejoin:miter;stroke-opacity:1" />
      <path
         sodipodi:nodetypes="ccccccccccccc"
         inkscape:connector-curvature="0"
         id="path5966"
         d="m 127.04725,159.08593 c -1.04653,1.37614 -2.52969,3.6543 -2.66946,5.59878 l 0.0945,26.87174 c 0.10131,2.96729 2.58522,5.10162 3.59077,5.9177 l 0.0118,31.04129 c 0.0891,1.01036 -0.80862,3.10817 -3.27185,3.23641 l -15.03637,-0.11819 c -1.28421,-0.0107 -3.02241,-0.98626 -3.04744,-3.14193 l 0.0424,-31.14438 c -2.59092,-1.59156 -6.67177,-3.65366 -6.953912,-6.90731 L 100.04564,164.661 c 0.35181,-3.18706 4.42696,-4.98453 7.28785,-5.19717 z"
         style="fill:#e9afaf;fill-opacity:1;stroke:none;stroke-width:0.26458332px;stroke-linecap:butt;stroke-linejoin:miter;stroke-opacity:1" />
      <path
         sodipodi:nodetypes="cccccccccccccc"
         inkscape:connector-curvature="0"
         id="path5968"
         d="m 165.73707,159.247 18.75074,0.087 c 4.34066,0.10559 8.05351,2.58596 8.10287,5.9413 l 0.17803,25.13912 c 0.24893,2.53109 -4.24008,5.81135 -6.79176,6.69727 l -0.0127,31.61637 c -0.0198,1.28668 -1.2671,2.85845 -2.83482,2.9175 l -15.66239,-0.10628 c -1.08761,-0.002 -2.79854,-0.79831 -2.89387,-2.72851 l -0.0561,-31.19032 c 1.05646,-1.03996 3.30085,-2.86329 3.78448,-7.00854 l -0.0289,-25.72135 c -0.26867,-2.07317 -1.78033,-4.64128 -2.53546,-5.64351 z"
         style="fill:#e9afaf;fill-opacity:1;stroke:none;stroke-width:0.26458332px;stroke-linecap:butt;stroke-linejoin:miter;stroke-opacity:1" />
    </g>
  </g>
</svg>
